<?xml version="1.0" encoding="UTF-8" standalone="no"?>
<!DOCTYPE svg PUBLIC "-//W3C//DTD SVG 1.1//EN"
 "http://www.w3.org/Graphics/SVG/1.1/DTD/svg11.dtd">
<!-- Generated by graphviz version 2.43.0 (0)
 -->
<!-- Title: test Pages: 1 -->
<svg width="2429pt" height="1412pt"
 viewBox="0.00 0.00 2428.50 1412.00" xmlns="http://www.w3.org/2000/svg" xmlns:xlink="http://www.w3.org/1999/xlink">
<g id="graph0" class="graph" transform="scale(1 1) rotate(0) translate(4 1408)">
<title>test</title>
<polygon fill="white" stroke="transparent" points="-4,4 -4,-1408 2424.5,-1408 2424.5,4 -4,4"/>
<g id="clust1" class="cluster">
<title>cluster_views</title>
<polygon fill="none" stroke="black" points="8,-8 8,-575 1395,-575 1395,-8 8,-8"/>
<text text-anchor="middle" x="701.5" y="-559.8" font-family="Times,serif" font-size="14.00">views</text>
</g>
<!-- node1 -->
<g id="node1" class="node">
<title>node1</title>
<polygon fill="white" stroke="black" points="278.5,-1312.5 278.5,-1403.5 475.5,-1403.5 475.5,-1312.5 278.5,-1312.5"/>
<text text-anchor="middle" x="377" y="-1388.3" font-family="Times,serif" font-size="14.00">sources_uri</text>
<polyline fill="none" stroke="black" points="278.5,-1380.5 475.5,-1380.5 "/>
<text text-anchor="start" x="286.5" y="-1365.3" font-family="Times,serif" font-size="14.00">&#45; piece_cid text [U]</text>
<text text-anchor="start" x="286.5" y="-1350.3" font-family="Times,serif" font-size="14.00">&#45; piece_log2_size smallint</text>
<text text-anchor="start" x="286.5" y="-1335.3" font-family="Times,serif" font-size="14.00">&#45; uri text</text>
<text text-anchor="start" x="286.5" y="-1320.3" font-family="Times,serif" font-size="14.00">&#45; piece_id bigint [N]</text>
</g>
<!-- node2 -->
<g id="node2" class="node">
<title>node2</title>
<polygon fill="white" stroke="black" points="494,-1327.5 494,-1388.5 706,-1388.5 706,-1327.5 494,-1327.5"/>
<text text-anchor="middle" x="600" y="-1373.3" font-family="Times,serif" font-size="14.00">global</text>
<polyline fill="none" stroke="black" points="494,-1365.5 706,-1365.5 "/>
<text text-anchor="start" x="502" y="-1350.3" font-family="Times,serif" font-size="14.00">&#45; singleton_row boolean [U]</text>
<text text-anchor="start" x="502" y="-1335.3" font-family="Times,serif" font-size="14.00">&#45; metadata jsonb</text>
</g>
<!-- node3 -->
<g id="node3" class="node">
<title>node3</title>
<polygon fill="white" stroke="black" points="173.5,-1184.5 173.5,-1245.5 354.5,-1245.5 354.5,-1184.5 173.5,-1184.5"/>
<text text-anchor="middle" x="264" y="-1230.3" font-family="Times,serif" font-size="14.00">labels</text>
<polyline fill="none" stroke="black" points="173.5,-1222.5 354.5,-1222.5 "/>
<text text-anchor="start" x="181.5" y="-1207.3" font-family="Times,serif" font-size="14.00">&#45; label_id bigint [U]</text>
<text text-anchor="start" x="181.5" y="-1192.3" font-family="Times,serif" font-size="14.00">&#45; label_string bytea [U]</text>
</g>
<!-- node16 -->
<g id="node15" class="node">
<title>node16</title>
<polygon fill="white" stroke="black" points="159.5,-929 159.5,-1050 368.5,-1050 368.5,-929 159.5,-929"/>
<text text-anchor="middle" x="264" y="-1034.8" font-family="Times,serif" font-size="14.00">tenants_pieces</text>
<polyline fill="none" stroke="black" points="159.5,-1027 368.5,-1027 "/>
<text text-anchor="start" x="167.5" y="-1011.8" font-family="Times,serif" font-size="14.00">&#45; piece_id bigint [FK,U]</text>
<text text-anchor="start" x="167.5" y="-996.8" font-family="Times,serif" font-size="14.00">&#45; label_id bigint [FK,N]</text>
<text text-anchor="start" x="167.5" y="-981.8" font-family="Times,serif" font-size="14.00">&#45; dataset_id integer [FK,U]</text>
<text text-anchor="start" x="167.5" y="-966.8" font-family="Times,serif" font-size="14.00">&#45; tenant_id smallint [FK]</text>
<text text-anchor="start" x="167.5" y="-951.8" font-family="Times,serif" font-size="14.00">&#45; piece_inactivated boolean</text>
<text text-anchor="start" x="167.5" y="-936.8" font-family="Times,serif" font-size="14.00">&#45; tenant_piece_meta jsonb</text>
</g>
<!-- node3&#45;&gt;node16 -->
<g id="edge5" class="edge">
<title>node3&#45;&gt;node16</title>
<path fill="none" stroke="black" d="M264,-1184.32C264,-1152.84 264,-1101.98 264,-1060.27"/>
<polygon fill="none" stroke="black" points="267.5,-1060.15 264,-1050.15 260.5,-1060.15 267.5,-1060.15"/>
</g>
<!-- node4 -->
<g id="node4" class="node">
<title>node4</title>
<polygon fill="white" stroke="black" points="924.5,-1327.5 924.5,-1388.5 1145.5,-1388.5 1145.5,-1327.5 924.5,-1327.5"/>
<text text-anchor="middle" x="1035" y="-1373.3" font-family="Times,serif" font-size="14.00">piece_source_types</text>
<polyline fill="none" stroke="black" points="924.5,-1365.5 1145.5,-1365.5 "/>
<text text-anchor="start" x="932.5" y="-1350.3" font-family="Times,serif" font-size="14.00">&#45; source_type_id smallint [U]</text>
<text text-anchor="start" x="932.5" y="-1335.3" font-family="Times,serif" font-size="14.00">&#45; source_type text [U]</text>
</g>
<!-- node5 -->
<g id="node5" class="node">
<title>node5</title>
<polygon fill="white" stroke="black" points="657,-1169.5 657,-1260.5 881,-1260.5 881,-1169.5 657,-1169.5"/>
<text text-anchor="middle" x="769" y="-1245.3" font-family="Times,serif" font-size="14.00">pieces</text>
<polyline fill="none" stroke="black" points="657,-1237.5 881,-1237.5 "/>
<text text-anchor="start" x="665" y="-1222.3" font-family="Times,serif" font-size="14.00">&#45; piece_id bigint [U]</text>
<text text-anchor="start" x="665" y="-1207.3" font-family="Times,serif" font-size="14.00">&#45; piece_cid text [U]</text>
<text text-anchor="start" x="665" y="-1192.3" font-family="Times,serif" font-size="14.00">&#45; piece_log2_size smallint [U]</text>
<text text-anchor="start" x="665" y="-1177.3" font-family="Times,serif" font-size="14.00">&#45; piece_meta jsonb</text>
</g>
<!-- node5&#45;&gt;node16 -->
<g id="edge17" class="edge">
<title>node5&#45;&gt;node16</title>
<path fill="none" stroke="black" d="M657.5,-1169.43C640.75,-1163.69 623.54,-1158.32 607,-1154 507.31,-1127.98 468.49,-1167.27 378,-1118 351.52,-1103.58 328.12,-1080.55 309.51,-1058"/>
<polygon fill="black" stroke="black" points="312.12,-1055.66 303.13,-1050.06 306.66,-1060.04 312.12,-1055.66"/>
</g>
<!-- node17 -->
<g id="node16" class="node">
<title>node17</title>
<polygon fill="white" stroke="black" points="621,-861.5 621,-1117.5 937,-1117.5 937,-861.5 621,-861.5"/>
<text text-anchor="middle" x="779" y="-1102.3" font-family="Times,serif" font-size="14.00">published_deals</text>
<polyline fill="none" stroke="black" points="621,-1094.5 937,-1094.5 "/>
<text text-anchor="start" x="629" y="-1079.3" font-family="Times,serif" font-size="14.00">&#45; deal_id bigint [U]</text>
<text text-anchor="start" x="629" y="-1064.3" font-family="Times,serif" font-size="14.00">&#45; piece_id bigint [FK]</text>
<text text-anchor="start" x="629" y="-1049.3" font-family="Times,serif" font-size="14.00">&#45; piece_cid text [FK]</text>
<text text-anchor="start" x="629" y="-1034.3" font-family="Times,serif" font-size="14.00">&#45; claimed_log2_size smallint</text>
<text text-anchor="start" x="629" y="-1019.3" font-family="Times,serif" font-size="14.00">&#45; provider_id integer [FK]</text>
<text text-anchor="start" x="629" y="-1004.3" font-family="Times,serif" font-size="14.00">&#45; client_id integer [FK]</text>
<text text-anchor="start" x="629" y="-989.3" font-family="Times,serif" font-size="14.00">&#45; label bytea</text>
<text text-anchor="start" x="629" y="-974.3" font-family="Times,serif" font-size="14.00">&#45; decoded_label text [N]</text>
<text text-anchor="start" x="629" y="-959.3" font-family="Times,serif" font-size="14.00">&#45; is_filplus boolean</text>
<text text-anchor="start" x="629" y="-944.3" font-family="Times,serif" font-size="14.00">&#45; status text</text>
<text text-anchor="start" x="629" y="-929.3" font-family="Times,serif" font-size="14.00">&#45; published_deal_meta jsonb</text>
<text text-anchor="start" x="629" y="-914.3" font-family="Times,serif" font-size="14.00">&#45; start_epoch integer</text>
<text text-anchor="start" x="629" y="-899.3" font-family="Times,serif" font-size="14.00">&#45; end_epoch integer</text>
<text text-anchor="start" x="629" y="-884.3" font-family="Times,serif" font-size="14.00">&#45; sector_start_epoch integer [N]</text>
<text text-anchor="start" x="629" y="-869.3" font-family="Times,serif" font-size="14.00">&#45; entry_created timestamp with time zone</text>
</g>
<!-- node5&#45;&gt;node17 -->
<g id="edge16" class="edge">
<title>node5&#45;&gt;node17</title>
<path fill="none" stroke="black" d="M771,-1169.31C771.56,-1156.89 772.19,-1142.71 772.85,-1127.9"/>
<polygon fill="black" stroke="black" points="776.36,-1127.71 773.31,-1117.56 769.37,-1127.4 776.36,-1127.71"/>
</g>
<!-- node20 -->
<g id="node18" class="node">
<title>node20</title>
<polygon fill="white" stroke="black" points="956.5,-583.5 956.5,-824.5 1337.5,-824.5 1337.5,-583.5 956.5,-583.5"/>
<text text-anchor="middle" x="1147" y="-809.3" font-family="Times,serif" font-size="14.00">proposals</text>
<polyline fill="none" stroke="black" points="956.5,-801.5 1337.5,-801.5 "/>
<text text-anchor="start" x="964.5" y="-786.3" font-family="Times,serif" font-size="14.00">&#45; proposal_uuid uuid [U]</text>
<text text-anchor="start" x="964.5" y="-771.3" font-family="Times,serif" font-size="14.00">&#45; piece_id bigint [FK,U]</text>
<text text-anchor="start" x="964.5" y="-756.3" font-family="Times,serif" font-size="14.00">&#45; entry_created timestamp with time zone</text>
<text text-anchor="start" x="964.5" y="-741.3" font-family="Times,serif" font-size="14.00">&#45; signature_obtained timestamp with time zone [N]</text>
<text text-anchor="start" x="964.5" y="-726.3" font-family="Times,serif" font-size="14.00">&#45; proposal_delivered timestamp with time zone [N]</text>
<text text-anchor="start" x="964.5" y="-711.3" font-family="Times,serif" font-size="14.00">&#45; activated_deal_id bigint [FK,U,N]</text>
<text text-anchor="start" x="964.5" y="-696.3" font-family="Times,serif" font-size="14.00">&#45; proposal_failstamp bigint [U]</text>
<text text-anchor="start" x="964.5" y="-681.3" font-family="Times,serif" font-size="14.00">&#45; entry_last_updated timestamp with time zone</text>
<text text-anchor="start" x="964.5" y="-666.3" font-family="Times,serif" font-size="14.00">&#45; provider_id integer [FK,U]</text>
<text text-anchor="start" x="964.5" y="-651.3" font-family="Times,serif" font-size="14.00">&#45; client_id integer [FK]</text>
<text text-anchor="start" x="964.5" y="-636.3" font-family="Times,serif" font-size="14.00">&#45; start_epoch integer</text>
<text text-anchor="start" x="964.5" y="-621.3" font-family="Times,serif" font-size="14.00">&#45; end_epoch integer</text>
<text text-anchor="start" x="964.5" y="-606.3" font-family="Times,serif" font-size="14.00">&#45; proxied_log2_size smallint [FK]</text>
<text text-anchor="start" x="964.5" y="-591.3" font-family="Times,serif" font-size="14.00">&#45; proposal_meta jsonb</text>
</g>
<!-- node5&#45;&gt;node20 -->
<g id="edge15" class="edge">
<title>node5&#45;&gt;node20</title>
<path fill="none" stroke="black" d="M859.4,-1169.4C899.85,-1148.64 939.88,-1126.65 946,-1118 1012.83,-1023.59 933.78,-963.7 987,-861 991.99,-851.37 997.79,-841.99 1004.18,-832.91"/>
<polygon fill="black" stroke="black" points="1007.13,-834.8 1010.2,-824.66 1001.48,-830.68 1007.13,-834.8"/>
</g>
<!-- node6 -->
<g id="node6" class="node">
<title>node6</title>
<polygon fill="white" stroke="black" points="724,-1320 724,-1396 906,-1396 906,-1320 724,-1320"/>
<text text-anchor="middle" x="815" y="-1380.8" font-family="Times,serif" font-size="14.00">tenants</text>
<polyline fill="none" stroke="black" points="724,-1373 906,-1373 "/>
<text text-anchor="start" x="732" y="-1357.8" font-family="Times,serif" font-size="14.00">&#45; tenant_id smallint [U]</text>
<text text-anchor="start" x="732" y="-1342.8" font-family="Times,serif" font-size="14.00">&#45; tenant_name text [U]</text>
<text text-anchor="start" x="732" y="-1327.8" font-family="Times,serif" font-size="14.00">&#45; tenant_meta jsonb</text>
</g>
<!-- node7 -->
<g id="node7" class="node">
<title>node7</title>
<polygon fill="white" stroke="black" points="899,-1169.5 899,-1260.5 1105,-1260.5 1105,-1169.5 899,-1169.5"/>
<text text-anchor="middle" x="1002" y="-1245.3" font-family="Times,serif" font-size="14.00">clients</text>
<polyline fill="none" stroke="black" points="899,-1237.5 1105,-1237.5 "/>
<text text-anchor="start" x="907" y="-1222.3" font-family="Times,serif" font-size="14.00">&#45; client_id integer [U]</text>
<text text-anchor="start" x="907" y="-1207.3" font-family="Times,serif" font-size="14.00">&#45; tenant_id smallint [FK,N]</text>
<text text-anchor="start" x="907" y="-1192.3" font-family="Times,serif" font-size="14.00">&#45; client_address text [U,N]</text>
<text text-anchor="start" x="907" y="-1177.3" font-family="Times,serif" font-size="14.00">&#45; client_meta jsonb</text>
</g>
<!-- node6&#45;&gt;node7 -->
<g id="edge31" class="edge">
<title>node6&#45;&gt;node7</title>
<path fill="none" stroke="black" d="M864.13,-1319.95C885.72,-1303.68 911.41,-1284.3 934.74,-1266.72"/>
<polygon fill="none" stroke="black" points="937,-1269.4 942.88,-1260.58 932.78,-1263.81 937,-1269.4"/>
</g>
<!-- node8 -->
<g id="node8" class="node">
<title>node8</title>
<polygon fill="white" stroke="black" points="392,-1169.5 392,-1260.5 598,-1260.5 598,-1169.5 392,-1169.5"/>
<text text-anchor="middle" x="495" y="-1245.3" font-family="Times,serif" font-size="14.00">datasets</text>
<polyline fill="none" stroke="black" points="392,-1237.5 598,-1237.5 "/>
<text text-anchor="start" x="400" y="-1222.3" font-family="Times,serif" font-size="14.00">&#45; dataset_id integer [U]</text>
<text text-anchor="start" x="400" y="-1207.3" font-family="Times,serif" font-size="14.00">&#45; tenant_id smallint [FK,U]</text>
<text text-anchor="start" x="400" y="-1192.3" font-family="Times,serif" font-size="14.00">&#45; dataset_slug text [U]</text>
<text text-anchor="start" x="400" y="-1177.3" font-family="Times,serif" font-size="14.00">&#45; dataset_meta jsonb</text>
</g>
<!-- node6&#45;&gt;node8 -->
<g id="edge32" class="edge">
<title>node6&#45;&gt;node8</title>
<path fill="none" stroke="black" d="M734.19,-1319.97C727.72,-1317.21 721.27,-1314.52 715,-1312 670.79,-1294.21 657.81,-1294.76 614,-1276 605.96,-1272.56 597.71,-1268.83 589.47,-1264.96"/>
<polygon fill="black" stroke="black" points="590.73,-1261.68 580.2,-1260.55 587.73,-1268.01 590.73,-1261.68"/>
</g>
<!-- node11 -->
<g id="node11" class="node">
<title>node11</title>
<polygon fill="white" stroke="black" points="387,-951.5 387,-1027.5 603,-1027.5 603,-951.5 387,-951.5"/>
<text text-anchor="middle" x="495" y="-1012.3" font-family="Times,serif" font-size="14.00">datasets_links</text>
<polyline fill="none" stroke="black" points="387,-1004.5 603,-1004.5 "/>
<text text-anchor="start" x="395" y="-989.3" font-family="Times,serif" font-size="14.00">&#45; superset_id integer [FK,U]</text>
<text text-anchor="start" x="395" y="-974.3" font-family="Times,serif" font-size="14.00">&#45; subset_id integer [FK,U]</text>
<text text-anchor="start" x="395" y="-959.3" font-family="Times,serif" font-size="14.00">&#45; tenant_id smallint [FK]</text>
</g>
<!-- node6&#45;&gt;node11 -->
<g id="edge33" class="edge">
<title>node6&#45;&gt;node11</title>
<path fill="none" stroke="black" d="M735.01,-1319.85C693.81,-1300.44 651.43,-1279.9 648,-1276 610.21,-1233.06 632.52,-1205.2 607,-1154 585.87,-1111.6 555.06,-1067.51 531.11,-1035.81"/>
<polygon fill="black" stroke="black" points="533.71,-1033.45 524.86,-1027.62 528.14,-1037.7 533.71,-1033.45"/>
</g>
<!-- node15 -->
<g id="node14" class="node">
<title>node15</title>
<polygon fill="white" stroke="black" points="2187.5,-944 2187.5,-1035 2420.5,-1035 2420.5,-944 2187.5,-944"/>
<text text-anchor="middle" x="2304" y="-1019.8" font-family="Times,serif" font-size="14.00">tenants_providers</text>
<polyline fill="none" stroke="black" points="2187.5,-1012 2420.5,-1012 "/>
<text text-anchor="start" x="2195.5" y="-996.8" font-family="Times,serif" font-size="14.00">&#45; provider_id integer [FK,U]</text>
<text text-anchor="start" x="2195.5" y="-981.8" font-family="Times,serif" font-size="14.00">&#45; tenant_id smallint [FK,U]</text>
<text text-anchor="start" x="2195.5" y="-966.8" font-family="Times,serif" font-size="14.00">&#45; provider_inactivated boolean</text>
<text text-anchor="start" x="2195.5" y="-951.8" font-family="Times,serif" font-size="14.00">&#45; tenant_provider_meta jsonb</text>
</g>
<!-- node6&#45;&gt;node15 -->
<g id="edge34" class="edge">
<title>node6&#45;&gt;node15</title>
<path fill="none" stroke="black" d="M888.98,-1319.95C897.59,-1316.77 906.38,-1314.01 915,-1312 1139.36,-1259.75 1732.82,-1349.91 1951,-1276 2082.9,-1231.31 2200.89,-1112.31 2261.33,-1042.86"/>
<polygon fill="black" stroke="black" points="2264.18,-1044.92 2268.06,-1035.06 2258.88,-1040.34 2264.18,-1044.92"/>
</g>
<!-- node7&#45;&gt;node17 -->
<g id="edge2" class="edge">
<title>node7&#45;&gt;node17</title>
<path fill="none" stroke="black" d="M957.41,-1169.31C944.18,-1156.05 928.96,-1140.8 913.11,-1124.91"/>
<polygon fill="black" stroke="black" points="915.32,-1122.17 905.78,-1117.56 910.37,-1127.11 915.32,-1122.17"/>
</g>
<!-- node7&#45;&gt;node20 -->
<g id="edge1" class="edge">
<title>node7&#45;&gt;node20</title>
<path fill="none" stroke="black" d="M996.08,-1169.28C988.81,-1100.46 981.9,-965.6 1022,-861 1025.54,-851.76 1029.84,-842.65 1034.69,-833.75"/>
<polygon fill="black" stroke="black" points="1037.81,-835.34 1039.71,-824.92 1031.73,-831.88 1037.81,-835.34"/>
</g>
<!-- node8&#45;&gt;node11 -->
<g id="edge3" class="edge">
<title>node8&#45;&gt;node11</title>
<path fill="none" stroke="black" d="M495,-1169.31C495,-1131.19 495,-1076.54 495,-1037.71"/>
<polygon fill="black" stroke="black" points="498.5,-1037.71 495,-1027.71 491.5,-1037.71 498.5,-1037.71"/>
</g>
<!-- node8&#45;&gt;node16 -->
<g id="edge4" class="edge">
<title>node8&#45;&gt;node16</title>
<path fill="none" stroke="black" d="M436.96,-1169.31C417.65,-1153.69 396.4,-1135.64 378,-1118 358.42,-1099.23 338.3,-1077.63 320.52,-1057.6"/>
<polygon fill="black" stroke="black" points="323.07,-1055.2 313.83,-1050.01 317.82,-1059.83 323.07,-1055.2"/>
</g>
<!-- node9 -->
<g id="node9" class="node">
<title>node9</title>
<polygon fill="white" stroke="black" points="1752,-1154.5 1752,-1275.5 1942,-1275.5 1942,-1154.5 1752,-1154.5"/>
<text text-anchor="middle" x="1847" y="-1260.3" font-family="Times,serif" font-size="14.00">providers</text>
<polyline fill="none" stroke="black" points="1752,-1252.5 1942,-1252.5 "/>
<text text-anchor="start" x="1760" y="-1237.3" font-family="Times,serif" font-size="14.00">&#45; provider_id integer [U]</text>
<text text-anchor="start" x="1760" y="-1222.3" font-family="Times,serif" font-size="14.00">&#45; org_id smallint</text>
<text text-anchor="start" x="1760" y="-1207.3" font-family="Times,serif" font-size="14.00">&#45; city_id smallint</text>
<text text-anchor="start" x="1760" y="-1192.3" font-family="Times,serif" font-size="14.00">&#45; country_id smallint</text>
<text text-anchor="start" x="1760" y="-1177.3" font-family="Times,serif" font-size="14.00">&#45; continent_id smallint</text>
<text text-anchor="start" x="1760" y="-1162.3" font-family="Times,serif" font-size="14.00">&#45; provider_meta jsonb</text>
</g>
<!-- node10 -->
<g id="node10" class="node">
<title>node10</title>
<polygon fill="white" stroke="black" points="1770.5,-929 1770.5,-1050 2131.5,-1050 2131.5,-929 1770.5,-929"/>
<text text-anchor="middle" x="1951" y="-1034.8" font-family="Times,serif" font-size="14.00">providers_info</text>
<polyline fill="none" stroke="black" points="1770.5,-1027 2131.5,-1027 "/>
<text text-anchor="start" x="1778.5" y="-1011.8" font-family="Times,serif" font-size="14.00">&#45; provider_id integer [FK,U]</text>
<text text-anchor="start" x="1778.5" y="-996.8" font-family="Times,serif" font-size="14.00">&#45; provider_last_polled timestamp with time zone</text>
<text text-anchor="start" x="1778.5" y="-981.8" font-family="Times,serif" font-size="14.00">&#45; info_last_updated timestamp with time zone</text>
<text text-anchor="start" x="1778.5" y="-966.8" font-family="Times,serif" font-size="14.00">&#45; info_dialing_took_msecs integer [N]</text>
<text text-anchor="start" x="1778.5" y="-951.8" font-family="Times,serif" font-size="14.00">&#45; info_dialing_peerid text [N]</text>
<text text-anchor="start" x="1778.5" y="-936.8" font-family="Times,serif" font-size="14.00">&#45; info jsonb</text>
</g>
<!-- node9&#45;&gt;node10 -->
<g id="edge21" class="edge">
<title>node9&#45;&gt;node10</title>
<path fill="none" stroke="black" d="M1868.68,-1154.4C1881.42,-1125.22 1897.76,-1089.92 1912.57,-1059.57"/>
<polygon fill="black" stroke="black" points="1915.84,-1060.84 1917.11,-1050.32 1909.56,-1057.76 1915.84,-1060.84"/>
</g>
<!-- node13 -->
<g id="node12" class="node">
<title>node13</title>
<polygon fill="white" stroke="black" points="1031,-936.5 1031,-1042.5 1381,-1042.5 1381,-936.5 1031,-936.5"/>
<text text-anchor="middle" x="1206" y="-1027.3" font-family="Times,serif" font-size="14.00">providers_info_log</text>
<polyline fill="none" stroke="black" points="1031,-1019.5 1381,-1019.5 "/>
<text text-anchor="start" x="1039" y="-1004.3" font-family="Times,serif" font-size="14.00">&#45; provider_id integer [FK]</text>
<text text-anchor="start" x="1039" y="-989.3" font-family="Times,serif" font-size="14.00">&#45; info_entry_created timestamp with time zone</text>
<text text-anchor="start" x="1039" y="-974.3" font-family="Times,serif" font-size="14.00">&#45; info_dialing_took_msecs integer [N]</text>
<text text-anchor="start" x="1039" y="-959.3" font-family="Times,serif" font-size="14.00">&#45; info_dialing_peerid text [N]</text>
<text text-anchor="start" x="1039" y="-944.3" font-family="Times,serif" font-size="14.00">&#45; info jsonb</text>
</g>
<!-- node9&#45;&gt;node13 -->
<g id="edge22" class="edge">
<title>node9&#45;&gt;node13</title>
<path fill="none" stroke="black" d="M1751.78,-1205.16C1656.94,-1193.81 1508.77,-1169.13 1390,-1118 1349.52,-1100.58 1308.8,-1073.57 1276,-1048.89"/>
<polygon fill="black" stroke="black" points="1277.91,-1045.95 1267.83,-1042.68 1273.67,-1051.52 1277.91,-1045.95"/>
</g>
<!-- node14 -->
<g id="node13" class="node">
<title>node14</title>
<polygon fill="white" stroke="black" points="1399,-936.5 1399,-1042.5 1715,-1042.5 1715,-936.5 1399,-936.5"/>
<text text-anchor="middle" x="1557" y="-1027.3" font-family="Times,serif" font-size="14.00">requests</text>
<polyline fill="none" stroke="black" points="1399,-1019.5 1715,-1019.5 "/>
<text text-anchor="start" x="1407" y="-1004.3" font-family="Times,serif" font-size="14.00">&#45; provider_id integer [FK]</text>
<text text-anchor="start" x="1407" y="-989.3" font-family="Times,serif" font-size="14.00">&#45; request_uuid uuid [U]</text>
<text text-anchor="start" x="1407" y="-974.3" font-family="Times,serif" font-size="14.00">&#45; entry_created timestamp with time zone</text>
<text text-anchor="start" x="1407" y="-959.3" font-family="Times,serif" font-size="14.00">&#45; request_dump jsonb</text>
<text text-anchor="start" x="1407" y="-944.3" font-family="Times,serif" font-size="14.00">&#45; request_meta jsonb</text>
</g>
<!-- node9&#45;&gt;node14 -->
<g id="edge24" class="edge">
<title>node9&#45;&gt;node14</title>
<path fill="none" stroke="black" d="M1769.67,-1154.4C1727.26,-1121.72 1674.91,-1081.37 1632.76,-1048.89"/>
<polygon fill="black" stroke="black" points="1634.8,-1046.04 1624.74,-1042.71 1630.52,-1051.58 1634.8,-1046.04"/>
</g>
<!-- node9&#45;&gt;node15 -->
<g id="edge25" class="edge">
<title>node9&#45;&gt;node15</title>
<path fill="none" stroke="black" d="M1942.14,-1198.64C2009.91,-1184.76 2101.31,-1159.92 2173,-1118 2206.41,-1098.46 2237.72,-1068.6 2261.35,-1042.69"/>
<polygon fill="black" stroke="black" points="2264.04,-1044.93 2268.12,-1035.14 2258.83,-1040.25 2264.04,-1044.93"/>
</g>
<!-- node9&#45;&gt;node17 -->
<g id="edge23" class="edge">
<title>node9&#45;&gt;node17</title>
<path fill="none" stroke="black" d="M1751.91,-1214.13C1595.94,-1211.88 1277.57,-1196.92 1022,-1118 996.76,-1110.21 971.06,-1099.81 946.28,-1088.3"/>
<polygon fill="black" stroke="black" points="947.73,-1085.11 937.19,-1084.01 944.74,-1091.44 947.73,-1085.11"/>
</g>
<!-- node9&#45;&gt;node20 -->
<g id="edge20" class="edge">
<title>node9&#45;&gt;node20</title>
<path fill="none" stroke="black" d="M1785,-1154.26C1776.07,-1142.98 1767.92,-1130.71 1762,-1118 1713.26,-1013.33 1800.72,-947.29 1724,-861 1673.74,-804.48 1493.63,-761.74 1347.84,-735.42"/>
<polygon fill="black" stroke="black" points="1348.31,-731.95 1337.85,-733.63 1347.07,-738.84 1348.31,-731.95"/>
</g>
<!-- node12 -->
<g id="node29" class="node">
<title>node12</title>
<polygon fill="white" stroke="black" points="1213.5,-377.5 1213.5,-438.5 1386.5,-438.5 1386.5,-377.5 1213.5,-377.5"/>
<text text-anchor="middle" x="1300" y="-423.3" font-family="Times,serif" font-size="14.00">mv_orglocal_presence</text>
<polyline fill="none" stroke="black" points="1213.5,-415.5 1386.5,-415.5 "/>
<text text-anchor="start" x="1221.5" y="-400.3" font-family="Times,serif" font-size="14.00">&#45; piece_id bigint [U]</text>
<text text-anchor="start" x="1221.5" y="-385.3" font-family="Times,serif" font-size="14.00">&#45; org_id smallint [U]</text>
</g>
<!-- node9&#45;&gt;node12 -->
<g id="edge19" class="edge">
<title>node9&#45;&gt;node12</title>
<path fill="none" stroke="black" d="M1942.16,-1155.9C1943.78,-1155.24 1945.39,-1154.61 1947,-1154 2029.01,-1122.95 2084.93,-1185.43 2141,-1118 2177.51,-1074.09 2170.3,-910.02 2141,-861 1976.47,-585.79 1580.4,-468.41 1396.65,-427.48"/>
<polygon fill="black" stroke="black" points="1397.24,-424.03 1386.72,-425.3 1395.74,-430.86 1397.24,-424.03"/>
</g>
<!-- node10&#45;&gt;node9 -->
<g id="edge26" class="edge">
<title>node10&#45;&gt;node9</title>
<path fill="none" stroke="black" d="M1929.22,-1050.32C1916.47,-1079.53 1900.12,-1114.83 1885.32,-1145.16"/>
<polygon fill="black" stroke="black" points="1882.05,-1143.88 1880.78,-1154.4 1888.33,-1146.97 1882.05,-1143.88"/>
</g>
<!-- node18 -->
<g id="node17" class="node">
<title>node18</title>
<polygon fill="white" stroke="black" points="743.5,-673.5 743.5,-734.5 938.5,-734.5 938.5,-673.5 743.5,-673.5"/>
<text text-anchor="middle" x="841" y="-719.3" font-family="Times,serif" font-size="14.00">invalidated_deals</text>
<polyline fill="none" stroke="black" points="743.5,-711.5 938.5,-711.5 "/>
<text text-anchor="start" x="751.5" y="-696.3" font-family="Times,serif" font-size="14.00">&#45; deal_id bigint [FK,U]</text>
<text text-anchor="start" x="751.5" y="-681.3" font-family="Times,serif" font-size="14.00">&#45; invalidation_meta jsonb</text>
</g>
<!-- node17&#45;&gt;node18 -->
<g id="edge27" class="edge">
<title>node17&#45;&gt;node18</title>
<path fill="none" stroke="black" d="M806.83,-861.26C816.08,-818.94 825.72,-774.88 832.39,-744.37"/>
<polygon fill="black" stroke="black" points="835.82,-745.09 834.53,-734.57 828.98,-743.59 835.82,-745.09"/>
</g>
<!-- node17&#45;&gt;node20 -->
<g id="edge30" class="edge">
<title>node17&#45;&gt;node20</title>
<path fill="none" stroke="black" d="M937.2,-866.63C952.63,-854.74 968.3,-842.66 983.78,-830.74"/>
<polygon fill="none" stroke="black" points="986.07,-833.4 991.85,-824.52 981.79,-827.85 986.07,-833.4"/>
</g>
<!-- node21 -->
<g id="node19" class="node">
<title>node21</title>
<polygon fill="white" stroke="black" points="932.5,-362.5 932.5,-453.5 1195.5,-453.5 1195.5,-362.5 932.5,-362.5"/>
<text text-anchor="middle" x="1064" y="-438.3" font-family="Times,serif" font-size="14.00">mv_deals_prefiltered_for_repcount</text>
<polyline fill="none" stroke="black" points="932.5,-430.5 1195.5,-430.5 "/>
<text text-anchor="start" x="940.5" y="-415.3" font-family="Times,serif" font-size="14.00">&#45; piece_id bigint [U]</text>
<text text-anchor="start" x="940.5" y="-400.3" font-family="Times,serif" font-size="14.00">&#45; provider_id integer [U]</text>
<text text-anchor="start" x="940.5" y="-385.3" font-family="Times,serif" font-size="14.00">&#45; is_filplus boolean [U]</text>
<text text-anchor="start" x="940.5" y="-370.3" font-family="Times,serif" font-size="14.00">&#45; claimant_id integer [U]</text>
</g>
<!-- node17&#45;&gt;node21 -->
<g id="edge28" class="edge">
<title>node17&#45;&gt;node21</title>
<path fill="none" stroke="black" d="M740.42,-861.1C737.81,-848.99 735.6,-836.82 734,-825 726.8,-771.71 696.79,-621.82 734,-583 748.54,-567.83 904.11,-584.23 923,-575 972.12,-551 1010.72,-501.17 1035.03,-462.34"/>
<polygon fill="black" stroke="black" points="1038.06,-464.09 1040.3,-453.73 1032.09,-460.43 1038.06,-464.09"/>
</g>
<!-- node19 -->
<g id="node30" class="node">
<title>node19</title>
<polygon fill="white" stroke="black" points="607.5,-325 607.5,-491 914.5,-491 914.5,-325 607.5,-325"/>
<text text-anchor="middle" x="761" y="-475.8" font-family="Times,serif" font-size="14.00">mv_pieces_availability</text>
<polyline fill="none" stroke="black" points="607.5,-468 914.5,-468 "/>
<text text-anchor="start" x="615.5" y="-452.8" font-family="Times,serif" font-size="14.00">&#45; display_sort bigint</text>
<text text-anchor="start" x="615.5" y="-437.8" font-family="Times,serif" font-size="14.00">&#45; piece_id bigint [U]</text>
<text text-anchor="start" x="615.5" y="-422.8" font-family="Times,serif" font-size="14.00">&#45; coarse_latest_active_end_epoch integer</text>
<text text-anchor="start" x="615.5" y="-407.8" font-family="Times,serif" font-size="14.00">&#45; piece_log2_size smallint</text>
<text text-anchor="start" x="615.5" y="-392.8" font-family="Times,serif" font-size="14.00">&#45; requires_64g_sector boolean</text>
<text text-anchor="start" x="615.5" y="-377.8" font-family="Times,serif" font-size="14.00">&#45; uri_available boolean</text>
<text text-anchor="start" x="615.5" y="-362.8" font-family="Times,serif" font-size="14.00">&#45; piece_cid text</text>
<text text-anchor="start" x="615.5" y="-347.8" font-family="Times,serif" font-size="14.00">&#45; potential_tenant_ids smallint[]</text>
<text text-anchor="start" x="615.5" y="-332.8" font-family="Times,serif" font-size="14.00">&#45; has_sources boolean</text>
</g>
<!-- node17&#45;&gt;node19 -->
<g id="edge29" class="edge">
<title>node17&#45;&gt;node19</title>
<path fill="none" stroke="black" d="M712.74,-861.43C708.41,-849.35 704.71,-837.09 702,-825 678.52,-720.04 684.5,-689.12 702,-583 706.51,-555.67 714.75,-526.86 723.66,-500.72"/>
<polygon fill="black" stroke="black" points="726.99,-501.81 726.98,-491.22 720.38,-499.51 726.99,-501.81"/>
</g>
<!-- node20&#45;&gt;node21 -->
<g id="edge18" class="edge">
<title>node20&#45;&gt;node21</title>
<path fill="none" stroke="black" d="M1113.24,-583.42C1101.48,-541.75 1088.85,-497.03 1079.33,-463.3"/>
<polygon fill="black" stroke="black" points="1082.69,-462.33 1076.61,-453.65 1075.95,-464.23 1082.69,-462.33"/>
</g>
<!-- node22 -->
<g id="node20" class="node">
<title>node22</title>
<polygon fill="white" stroke="black" points="424,-129.5 424,-235.5 618,-235.5 618,-129.5 424,-129.5"/>
<text text-anchor="middle" x="521" y="-220.3" font-family="Times,serif" font-size="14.00">mv_replicas_city</text>
<polyline fill="none" stroke="black" points="424,-212.5 618,-212.5 "/>
<text text-anchor="start" x="432" y="-197.3" font-family="Times,serif" font-size="14.00">&#45; piece_id bigint [U]</text>
<text text-anchor="start" x="432" y="-182.3" font-family="Times,serif" font-size="14.00">&#45; claimant_id integer [U]</text>
<text text-anchor="start" x="432" y="-167.3" font-family="Times,serif" font-size="14.00">&#45; city_id smallint [U]</text>
<text text-anchor="start" x="432" y="-152.3" font-family="Times,serif" font-size="14.00">&#45; replicas_filplus smallint</text>
<text text-anchor="start" x="432" y="-137.3" font-family="Times,serif" font-size="14.00">&#45; replicas_any smallint</text>
</g>
<!-- node21&#45;&gt;node22 -->
<g id="edge6" class="edge">
<title>node21&#45;&gt;node22</title>
<path fill="none" stroke="black" d="M1029.38,-362.32C1003.42,-332.02 965.2,-293.68 923,-272 845.77,-232.33 815.82,-254.54 731,-236 697.48,-228.67 661.16,-219.9 628.29,-211.63"/>
<polygon fill="black" stroke="black" points="628.77,-208.14 618.21,-209.09 627.05,-214.93 628.77,-208.14"/>
</g>
<!-- node23 -->
<g id="node21" class="node">
<title>node23</title>
<polygon fill="white" stroke="black" points="740.5,-129.5 740.5,-235.5 943.5,-235.5 943.5,-129.5 740.5,-129.5"/>
<text text-anchor="middle" x="842" y="-220.3" font-family="Times,serif" font-size="14.00">mv_replicas_continent</text>
<polyline fill="none" stroke="black" points="740.5,-212.5 943.5,-212.5 "/>
<text text-anchor="start" x="748.5" y="-197.3" font-family="Times,serif" font-size="14.00">&#45; piece_id bigint [U]</text>
<text text-anchor="start" x="748.5" y="-182.3" font-family="Times,serif" font-size="14.00">&#45; claimant_id integer [U]</text>
<text text-anchor="start" x="748.5" y="-167.3" font-family="Times,serif" font-size="14.00">&#45; continent_id smallint [U]</text>
<text text-anchor="start" x="748.5" y="-152.3" font-family="Times,serif" font-size="14.00">&#45; replicas_filplus smallint</text>
<text text-anchor="start" x="748.5" y="-137.3" font-family="Times,serif" font-size="14.00">&#45; replicas_any smallint</text>
</g>
<!-- node21&#45;&gt;node23 -->
<g id="edge7" class="edge">
<title>node21&#45;&gt;node23</title>
<path fill="none" stroke="black" d="M1019.61,-362.31C985.56,-328.03 938.25,-280.4 901.02,-242.92"/>
<polygon fill="black" stroke="black" points="903.24,-240.19 893.71,-235.56 898.28,-245.12 903.24,-240.19"/>
</g>
<!-- node24 -->
<g id="node22" class="node">
<title>node24</title>
<polygon fill="white" stroke="black" points="971,-129.5 971,-235.5 1165,-235.5 1165,-129.5 971,-129.5"/>
<text text-anchor="middle" x="1068" y="-220.3" font-family="Times,serif" font-size="14.00">mv_replicas_country</text>
<polyline fill="none" stroke="black" points="971,-212.5 1165,-212.5 "/>
<text text-anchor="start" x="979" y="-197.3" font-family="Times,serif" font-size="14.00">&#45; piece_id bigint [U]</text>
<text text-anchor="start" x="979" y="-182.3" font-family="Times,serif" font-size="14.00">&#45; claimant_id integer [U]</text>
<text text-anchor="start" x="979" y="-167.3" font-family="Times,serif" font-size="14.00">&#45; country_id smallint [U]</text>
<text text-anchor="start" x="979" y="-152.3" font-family="Times,serif" font-size="14.00">&#45; replicas_filplus smallint</text>
<text text-anchor="start" x="979" y="-137.3" font-family="Times,serif" font-size="14.00">&#45; replicas_any smallint</text>
</g>
<!-- node21&#45;&gt;node24 -->
<g id="edge8" class="edge">
<title>node21&#45;&gt;node24</title>
<path fill="none" stroke="black" d="M1064.8,-362.31C1065.4,-328.89 1066.22,-282.77 1066.89,-245.75"/>
<polygon fill="black" stroke="black" points="1070.39,-245.62 1067.07,-235.56 1063.39,-245.5 1070.39,-245.62"/>
</g>
<!-- node25 -->
<g id="node23" class="node">
<title>node25</title>
<polygon fill="white" stroke="black" points="1188,-129.5 1188,-235.5 1382,-235.5 1382,-129.5 1188,-129.5"/>
<text text-anchor="middle" x="1285" y="-220.3" font-family="Times,serif" font-size="14.00">mv_replicas_org</text>
<polyline fill="none" stroke="black" points="1188,-212.5 1382,-212.5 "/>
<text text-anchor="start" x="1196" y="-197.3" font-family="Times,serif" font-size="14.00">&#45; piece_id bigint [U]</text>
<text text-anchor="start" x="1196" y="-182.3" font-family="Times,serif" font-size="14.00">&#45; claimant_id integer [U]</text>
<text text-anchor="start" x="1196" y="-167.3" font-family="Times,serif" font-size="14.00">&#45; org_id smallint [U]</text>
<text text-anchor="start" x="1196" y="-152.3" font-family="Times,serif" font-size="14.00">&#45; replicas_filplus smallint</text>
<text text-anchor="start" x="1196" y="-137.3" font-family="Times,serif" font-size="14.00">&#45; replicas_any smallint</text>
</g>
<!-- node21&#45;&gt;node25 -->
<g id="edge9" class="edge">
<title>node21&#45;&gt;node25</title>
<path fill="none" stroke="black" d="M1108.19,-362.31C1142.08,-328.03 1189.18,-280.4 1226.25,-242.92"/>
<polygon fill="black" stroke="black" points="1228.98,-245.13 1233.52,-235.56 1224,-240.21 1228.98,-245.13"/>
</g>
<!-- node26 -->
<g id="node24" class="node">
<title>node26</title>
<polygon fill="white" stroke="black" points="324,-16.5 324,-92.5 506,-92.5 506,-16.5 324,-16.5"/>
<text text-anchor="middle" x="415" y="-77.3" font-family="Times,serif" font-size="14.00">mv_overreplicated_city</text>
<polyline fill="none" stroke="black" points="324,-69.5 506,-69.5 "/>
<text text-anchor="start" x="332" y="-54.3" font-family="Times,serif" font-size="14.00">&#45; piece_id bigint [U]</text>
<text text-anchor="start" x="332" y="-39.3" font-family="Times,serif" font-size="14.00">&#45; tenant_id smallint [U]</text>
<text text-anchor="start" x="332" y="-24.3" font-family="Times,serif" font-size="14.00">&#45; city_id smallint [U]</text>
</g>
<!-- node22&#45;&gt;node26 -->
<g id="edge10" class="edge">
<title>node22&#45;&gt;node26</title>
<path fill="none" stroke="black" d="M476.97,-129.16C468.88,-119.55 460.5,-109.59 452.63,-100.23"/>
<polygon fill="black" stroke="black" points="455.26,-97.92 446.14,-92.52 449.9,-102.42 455.26,-97.92"/>
</g>
<!-- node27 -->
<g id="node25" class="node">
<title>node27</title>
<polygon fill="white" stroke="black" points="730.5,-16.5 730.5,-92.5 953.5,-92.5 953.5,-16.5 730.5,-16.5"/>
<text text-anchor="middle" x="842" y="-77.3" font-family="Times,serif" font-size="14.00">mv_overreplicated_continent</text>
<polyline fill="none" stroke="black" points="730.5,-69.5 953.5,-69.5 "/>
<text text-anchor="start" x="738.5" y="-54.3" font-family="Times,serif" font-size="14.00">&#45; piece_id bigint [U]</text>
<text text-anchor="start" x="738.5" y="-39.3" font-family="Times,serif" font-size="14.00">&#45; tenant_id smallint [U]</text>
<text text-anchor="start" x="738.5" y="-24.3" font-family="Times,serif" font-size="14.00">&#45; continent_id smallint [U]</text>
</g>
<!-- node23&#45;&gt;node27 -->
<g id="edge11" class="edge">
<title>node23&#45;&gt;node27</title>
<path fill="none" stroke="black" d="M842,-129.16C842,-120.41 842,-111.38 842,-102.77"/>
<polygon fill="black" stroke="black" points="845.5,-102.52 842,-92.52 838.5,-102.52 845.5,-102.52"/>
</g>
<!-- node30 -->
<g id="node26" class="node">
<title>node30</title>
<polygon fill="white" stroke="black" points="524,-24 524,-85 712,-85 712,-24 524,-24"/>
<text text-anchor="middle" x="618" y="-69.8" font-family="Times,serif" font-size="14.00">mv_overreplicated_total</text>
<polyline fill="none" stroke="black" points="524,-62 712,-62 "/>
<text text-anchor="start" x="532" y="-46.8" font-family="Times,serif" font-size="14.00">&#45; piece_id bigint [U]</text>
<text text-anchor="start" x="532" y="-31.8" font-family="Times,serif" font-size="14.00">&#45; tenant_id smallint [U]</text>
</g>
<!-- node23&#45;&gt;node30 -->
<g id="edge12" class="edge">
<title>node23&#45;&gt;node30</title>
<path fill="none" stroke="black" d="M749.27,-129.34C725.68,-116.07 700.92,-102.14 679.33,-90"/>
<polygon fill="black" stroke="black" points="681.04,-86.94 670.6,-85.09 677.6,-93.04 681.04,-86.94"/>
</g>
<!-- node28 -->
<g id="node27" class="node">
<title>node28</title>
<polygon fill="white" stroke="black" points="972,-16.5 972,-92.5 1182,-92.5 1182,-16.5 972,-16.5"/>
<text text-anchor="middle" x="1077" y="-77.3" font-family="Times,serif" font-size="14.00">mv_overreplicated_country</text>
<polyline fill="none" stroke="black" points="972,-69.5 1182,-69.5 "/>
<text text-anchor="start" x="980" y="-54.3" font-family="Times,serif" font-size="14.00">&#45; piece_id bigint [U]</text>
<text text-anchor="start" x="980" y="-39.3" font-family="Times,serif" font-size="14.00">&#45; tenant_id smallint [U]</text>
<text text-anchor="start" x="980" y="-24.3" font-family="Times,serif" font-size="14.00">&#45; country_id smallint [U]</text>
</g>
<!-- node24&#45;&gt;node28 -->
<g id="edge13" class="edge">
<title>node24&#45;&gt;node28</title>
<path fill="none" stroke="black" d="M1071.74,-129.16C1072.36,-120.41 1073.01,-111.38 1073.62,-102.77"/>
<polygon fill="black" stroke="black" points="1077.13,-102.74 1074.36,-92.52 1070.15,-102.24 1077.13,-102.74"/>
</g>
<!-- node29 -->
<g id="node28" class="node">
<title>node29</title>
<polygon fill="white" stroke="black" points="1200,-16.5 1200,-92.5 1382,-92.5 1382,-16.5 1200,-16.5"/>
<text text-anchor="middle" x="1291" y="-77.3" font-family="Times,serif" font-size="14.00">mv_overreplicated_org</text>
<polyline fill="none" stroke="black" points="1200,-69.5 1382,-69.5 "/>
<text text-anchor="start" x="1208" y="-54.3" font-family="Times,serif" font-size="14.00">&#45; piece_id bigint [U]</text>
<text text-anchor="start" x="1208" y="-39.3" font-family="Times,serif" font-size="14.00">&#45; tenant_id smallint [U]</text>
<text text-anchor="start" x="1208" y="-24.3" font-family="Times,serif" font-size="14.00">&#45; org_id smallint [U]</text>
</g>
<!-- node25&#45;&gt;node29 -->
<g id="edge14" class="edge">
<title>node25&#45;&gt;node29</title>
<path fill="none" stroke="black" d="M1287.49,-129.16C1287.91,-120.41 1288.34,-111.38 1288.75,-102.77"/>
<polygon fill="black" stroke="black" points="1292.26,-102.67 1289.24,-92.52 1285.27,-102.34 1292.26,-102.67"/>
</g>
<!-- node31 -->
<g id="node31" class="node">
<title>node31</title>
<polygon fill="white" stroke="black" points="392.5,-362.5 392.5,-453.5 589.5,-453.5 589.5,-362.5 392.5,-362.5"/>
<text text-anchor="middle" x="491" y="-438.3" font-family="Times,serif" font-size="14.00">clients_datacap_available</text>
<polyline fill="none" stroke="black" points="392.5,-430.5 589.5,-430.5 "/>
<text text-anchor="start" x="400.5" y="-415.3" font-family="Times,serif" font-size="14.00">&#45; client_id</text>
<text text-anchor="start" x="400.5" y="-400.3" font-family="Times,serif" font-size="14.00">&#45; client_address</text>
<text text-anchor="start" x="400.5" y="-385.3" font-family="Times,serif" font-size="14.00">&#45; tenant_id</text>
<text text-anchor="start" x="400.5" y="-370.3" font-family="Times,serif" font-size="14.00">&#45; datacap_available</text>
</g>
<!-- node32 -->
<g id="node32" class="node">
<title>node32</title>
<polygon fill="white" stroke="black" points="210,-325 210,-491 374,-491 374,-325 210,-325"/>
<text text-anchor="middle" x="292" y="-475.8" font-family="Times,serif" font-size="14.00">known_deals_ranked</text>
<polyline fill="none" stroke="black" points="210,-468 374,-468 "/>
<text text-anchor="start" x="218" y="-452.8" font-family="Times,serif" font-size="14.00">&#45; intra_sp_rank</text>
<text text-anchor="start" x="218" y="-437.8" font-family="Times,serif" font-size="14.00">&#45; deal_id</text>
<text text-anchor="start" x="218" y="-422.8" font-family="Times,serif" font-size="14.00">&#45; piece_id</text>
<text text-anchor="start" x="218" y="-407.8" font-family="Times,serif" font-size="14.00">&#45; provider_id</text>
<text text-anchor="start" x="218" y="-392.8" font-family="Times,serif" font-size="14.00">&#45; client_id</text>
<text text-anchor="start" x="218" y="-377.8" font-family="Times,serif" font-size="14.00">&#45; end_epoch</text>
<text text-anchor="start" x="218" y="-362.8" font-family="Times,serif" font-size="14.00">&#45; state</text>
<text text-anchor="start" x="218" y="-347.8" font-family="Times,serif" font-size="14.00">&#45; is_filplus</text>
<text text-anchor="start" x="218" y="-332.8" font-family="Times,serif" font-size="14.00">&#45; claimant_ids</text>
</g>
<!-- node33 -->
<g id="node33" class="node">
<title>node33</title>
<polygon fill="white" stroke="black" points="16,-272.5 16,-543.5 192,-543.5 192,-272.5 16,-272.5"/>
<text text-anchor="middle" x="104" y="-528.3" font-family="Times,serif" font-size="14.00">known_missized_deals</text>
<polyline fill="none" stroke="black" points="16,-520.5 192,-520.5 "/>
<text text-anchor="start" x="24" y="-505.3" font-family="Times,serif" font-size="14.00">&#45; deal_id</text>
<text text-anchor="start" x="24" y="-490.3" font-family="Times,serif" font-size="14.00">&#45; piece_id</text>
<text text-anchor="start" x="24" y="-475.3" font-family="Times,serif" font-size="14.00">&#45; piece_cid</text>
<text text-anchor="start" x="24" y="-460.3" font-family="Times,serif" font-size="14.00">&#45; claimed_log2_size</text>
<text text-anchor="start" x="24" y="-445.3" font-family="Times,serif" font-size="14.00">&#45; provider_id</text>
<text text-anchor="start" x="24" y="-430.3" font-family="Times,serif" font-size="14.00">&#45; client_id</text>
<text text-anchor="start" x="24" y="-415.3" font-family="Times,serif" font-size="14.00">&#45; label</text>
<text text-anchor="start" x="24" y="-400.3" font-family="Times,serif" font-size="14.00">&#45; decoded_label</text>
<text text-anchor="start" x="24" y="-385.3" font-family="Times,serif" font-size="14.00">&#45; is_filplus</text>
<text text-anchor="start" x="24" y="-370.3" font-family="Times,serif" font-size="14.00">&#45; status</text>
<text text-anchor="start" x="24" y="-355.3" font-family="Times,serif" font-size="14.00">&#45; published_deal_meta</text>
<text text-anchor="start" x="24" y="-340.3" font-family="Times,serif" font-size="14.00">&#45; start_epoch</text>
<text text-anchor="start" x="24" y="-325.3" font-family="Times,serif" font-size="14.00">&#45; end_epoch</text>
<text text-anchor="start" x="24" y="-310.3" font-family="Times,serif" font-size="14.00">&#45; sector_start_epoch</text>
<text text-anchor="start" x="24" y="-295.3" font-family="Times,serif" font-size="14.00">&#45; entry_created</text>
<text text-anchor="start" x="24" y="-280.3" font-family="Times,serif" font-size="14.00">&#45; proven_log2_size</text>
</g>
</g>
</svg>
